<?xml version="1.0" encoding="UTF-8" standalone="no"?>
<!-- Created with Inkscape (http://www.inkscape.org/) -->

<svg
   width="210mm"
   height="297mm"
   viewBox="0 0 210 297"
   version="1.1"
   id="svg1"
   xml:space="preserve"
   inkscape:export-filename="globe.svg"
   inkscape:export-xdpi="96"
   inkscape:export-ydpi="96"
   inkscape:version="1.4.2 (ebf0e940d0, 2025-05-08)"
   sodipodi:docname="globe.svg"
   xmlns:inkscape="http://www.inkscape.org/namespaces/inkscape"
   xmlns:sodipodi="http://sodipodi.sourceforge.net/DTD/sodipodi-0.dtd"
   xmlns="http://www.w3.org/2000/svg"
   xmlns:svg="http://www.w3.org/2000/svg"><sodipodi:namedview
     id="namedview1"
     pagecolor="#505050"
     bordercolor="#ffffff"
     borderopacity="1"
     inkscape:showpageshadow="0"
     inkscape:pageopacity="0"
     inkscape:pagecheckerboard="1"
     inkscape:deskcolor="#505050"
     inkscape:document-units="mm"
     inkscape:zoom="1.6078056"
     inkscape:cx="441.59567"
     inkscape:cy="484.82229"
     inkscape:window-width="2560"
     inkscape:window-height="1418"
     inkscape:window-x="0"
     inkscape:window-y="0"
     inkscape:window-maximized="1"
     inkscape:current-layer="layer1" /><defs
     id="defs1" /><g
     inkscape:label="Layer 1"
     inkscape:groupmode="layer"
     id="layer1"><ellipse
       style="fill:#2980b9;fill-opacity:1;stroke-width:0.264583"
       id="path1"
       cx="106.55844"
       cy="-143.40091"
       rx="80.673798"
       ry="79.379562"
       transform="scale(1,-1)"
       inkscape:label="Globe"
       sodipodi:insensitive="true" /><path
       id="path2"
       style="display:inline;opacity:1;fill:#27ae60;fill-opacity:1;stroke-width:0.264583"
       inkscape:label="EuroAsiaAfrica"
       d="M 146.32233 74.333447 L 152.03775 80.010103 L 149.83788 81.581067 L 151.47241 83.46674 L 150.46678 85.980798 L 149.58674 87.175041 L 147.82664 85.414941 L 146.12958 86.860848 L 146.44429 88.683476 L 147.63802 89.437435 L 147.63802 93.083207 L 148.64364 94.088831 L 148.95835 96.225651 L 148.64364 98.111324 L 152.41499 98.299943 L 155.05462 101.50492 L 154.48928 102.32244 L 152.22637 100.12257 L 150.59236 100.87653 L 149.02088 100.62538 L 149.90093 101.9452 L 151.84913 102.88778 L 151.91217 103.95645 L 154.30066 107.09889 L 153.54618 108.10451 L 150.84351 105.33931 L 147.38687 100.43676 L 146.75848 101.37934 L 148.01525 104.58483 L 149.33507 106.84774 L 151.53494 107.41308 L 151.09517 108.41871 L 147.57549 108.48175 L 147.38687 109.42433 L 148.58111 110.1788 L 147.32382 112.19005 L 145.56424 111.37305 L 145.06143 112.62982 L 144.80977 113.76101 L 143.86719 114.13825 L 143.86719 116.40116 L 142.17013 116.33812 L 141.41566 114.13825 L 140.47308 114.82968 L 140.72474 117.09259 L 142.23318 117.34374 L 141.7929 118.28684 L 140.47308 118.03517 L 139.65608 119.92085 L 140.91285 121.42928 L 139.27884 121.68043 L 138.08459 120.86342 L 138.02207 122.30933 L 138.27321 123.00024 L 136.6392 122.7491 L 135.25634 120.61228 L 135.63358 119.8578 L 136.89087 120.04642 L 138.46183 119.22941 L 138.7135 118.22379 L 139.5305 117.09259 L 134.18819 114.57854 L 132.80533 113.0701 L 131.42247 113.19567 L 131.17132 111.18443 L 127.02274 110.87024 L 124.06891 113.13263 L 122.12071 114.57854 L 117.02955 119.10384 L 115.0183 121.68043 L 112.06448 122.49743 L 110.493 126.64602 L 109.29875 128.71979 L 110.493 130.35432 L 113.19567 128.84588 L 114.89273 128.09141 L 114.26434 130.54294 L 114.07572 132.99395 C 114.07572 132.99395 114.3896 133.99932 114.45245 134.25072 C 114.51525 134.50213 114.95551 135.13064 114.70411 135.25634 C 114.4527 135.38204 113.76108 135.3823 113.44682 135.50801 C 113.13256 135.63371 112.31563 136.89087 112.31562 136.89087 L 112.94401 137.95902 L 113.82406 136.82782 L 115.77278 137.01644 L 118.41241 135.8222 L 120.36061 133.37119 L 121.24066 130.47989 L 122.18324 128.97146 L 121.11509 126.01711 L 123.44053 122.68605 L 125.89154 121.68043 L 127.96583 119.0408 L 129.59984 119.54361 L 128.97146 121.42928 L 125.5143 124.19449 L 125.20011 127.52607 L 124.88592 129.47427 L 127.2744 129.85151 L 131.23385 129.47427 L 132.86838 129.72542 L 132.74229 130.60546 L 130.9827 130.91966 L 129.03398 130.22823 L 127.14883 130.66851 L 126.58297 131.98833 L 127.71417 133.55981 L 127.46302 135.19382 C 127.46302 135.19382 127.65143 135.88518 127.39998 136.19944 C 127.14858 136.5137 126.20573 136.82782 126.20573 136.82782 L 125.76597 135.38243 L 125.45177 134.56543 L 124.57172 135.38243 L 123.81725 137.70787 L 122.7491 138.90212 L 121.99462 140.34751 L 121.17762 140.03331 L 120.23504 138.90212 L 117.40679 139.59355 L 115.39554 140.22193 L 114.76664 138.83907 L 112.19005 138.58792 L 110.55604 137.95902 L 111.18443 136.6392 L 111.56167 135.19382 L 112.31562 134.37681 L 112.56729 132.80533 L 110.61857 132.99395 C 110.61857 132.99395 110.4928 134.12527 110.42995 134.50238 C 110.36715 134.87949 109.42433 136.70225 109.42433 136.70225 L 108.67037 137.33064 L 106.53355 136.32501 L 104.39621 136.70225 L 103.8934 138.27321 L 101.12819 141.16451 L 98.425517 140.91336 L 95.973987 142.04456 L 94.528597 142.17013 L 94.27745 141.60479 L 93.3974 142.48433 L 90.883341 141.41617 L 90.191911 144.55862 L 92.014539 146.1301 L 90.820296 148.8953 C 90.820296 148.8953 90.757576 150.34075 90.191911 150.52931 C 89.626245 150.71786 87.238086 150.59236 87.238086 150.59236 L 83.529785 148.58111 L 81.266874 146.25567 L 79.56982 145.62677 L 79.130054 147.57549 L 79.255627 149.46116 L 77.496045 152.16332 L 74.918941 153.79785 L 74.918941 155.30628 L 76.427376 157.63172 L 77.810238 158.13453 L 77.496045 160.58555 L 78.250004 161.02583 L 80.072632 160.20883 L 82.02135 161.1514 L 83.403695 162.03145 L 86.294991 161.27698 L 87.929 160.64859 L 87.175041 158.76292 C 87.175041 158.76292 87.866212 158.07143 88.117619 157.88287 C 88.369026 157.69432 90.506104 157.19144 90.506104 157.19144 L 92.454305 157.06587 L 94.403023 155.36881 L 96.41427 154.11204 L 98.362472 154.866 L 99.43114 155.55743 L 102.38497 154.23761 L 105.15069 154.92904 L 105.46488 157.50615 L 107.85337 161.40255 L 109.80157 163.47684 C 109.80157 163.47684 110.99581 166.43099 110.99581 166.87095 C 110.99581 167.31092 111.74977 168.44191 111.74977 168.44191 L 113.00706 166.93348 L 112.12701 165.23694 L 113.19567 165.1739 L 114.07572 166.24257 L 114.76664 165.42504 L 113.44682 163.72851 L 112.4412 163.16265 L 112.4412 162.03145 L 110.80719 162.03145 L 110.55604 160.39693 L 109.80157 159.76854 L 110.24133 157.88287 L 108.79594 156.6261 L 108.92152 154.6779 L 110.68162 154.61485 L 110.93276 156.18582 L 112.62982 158.32315 L 113.88711 159.83159 L 116.71536 161.59117 C 116.71536 161.59117 116.90366 162.84859 116.65231 163.2257 C 116.4009 163.60281 115.52111 163.91674 115.52111 164.29385 C 115.52111 164.67096 117.53236 166.74538 117.53236 166.74538 C 117.53236 166.74538 118.09795 168.06486 117.84655 168.12772 C 117.59514 168.19052 116.71536 169.57337 116.71536 169.82478 C 116.71536 170.07618 117.59541 172.5905 117.59541 172.5905 L 118.03517 173.4075 C 118.03517 173.4075 120.29808 172.3391 120.29808 172.08769 C 120.29808 171.83629 120.92647 170.70483 120.92647 170.70483 C 120.92647 170.70483 119.92065 170.07651 119.8578 169.76225 C 119.7949 169.448 120.04642 168.37939 120.04642 168.37939 L 120.29808 166.11648 L 120.17199 165.11085 L 121.55485 166.43067 L 122.37186 166.24257 L 121.49181 164.41942 L 123.06329 164.67109 L 124.94896 165.29947 L 126.83464 165.23694 L 128.15445 164.92223 L 128.46864 162.97403 C 128.46864 162.97403 128.90866 162.40817 129.16007 161.90536 C 129.41147 161.40255 130.35432 160.27135 130.35432 160.27135 L 130.35432 158.26011 L 131.79971 158.19758 L 132.61671 156.31191 L 134.18819 155.99771 L 135.75916 156.37495 L 137.45621 156.56305 L 140.47308 154.42623 L 141.91899 154.36319 C 141.91899 154.36319 142.17001 156.50027 141.7929 156.75167 C 141.41579 157.00308 140.22174 157.82034 140.15889 158.32315 C 140.09599 158.82596 140.22181 160.46016 140.53612 160.52302 C 140.85038 160.58582 142.79878 162.15703 143.05018 162.15703 C 143.30159 162.15703 144.30734 161.90549 144.43304 162.2826 C 144.55874 162.65971 144.30702 163.91706 143.99276 164.23132 C 143.6785 164.54558 142.35889 165.61372 141.73037 165.80228 C 141.10186 165.99083 139.21618 165.92823 138.83907 165.86533 C 138.46196 165.80253 137.51925 164.41942 137.51925 164.41942 C 137.51925 164.41942 136.19912 163.85376 135.75916 163.91661 C 135.3192 163.97941 132.49114 164.60804 132.49114 164.60804 C 132.49114 164.60804 130.16557 166.05381 129.78846 166.17952 C 129.41135 166.30522 127.2744 165.92786 127.2744 165.92786 L 125.64039 166.30509 L 124.82339 168.44191 L 126.01711 169.76225 C 126.01711 169.76225 126.08036 171.27055 126.33182 171.39626 C 126.58322 171.52196 128.02862 172.33877 128.28003 172.65303 C 128.53143 172.96728 129.47395 173.78428 130.03961 173.47003 C 130.60527 173.15577 131.73666 172.65303 131.73666 172.65303 L 132.30252 173.28193 L 133.49676 173.34446 L 134.43934 172.52745 L 135.19382 172.5905 L 136.26197 172.84165 L 138.14764 171.83602 L 139.15326 171.77349 L 139.97027 172.27631 L 139.65608 172.90469 C 139.65608 172.90469 138.21056 172.77886 137.83345 173.53308 C 137.45634 174.2873 136.70225 178.93843 136.70225 178.93843 L 136.26197 182.33254 C 136.26197 182.33254 135.005 183.71501 133.93653 183.0865 C 132.86805 182.45798 130.47989 181.20083 130.47989 181.20083 C 130.47989 181.20083 129.16021 181.13815 128.02888 181.57806 C 126.89755 182.01802 127.96576 182.2693 125.57735 182.70926 C 123.18899 183.14922 115.96088 179.50429 115.96088 179.50429 C 115.96088 179.50429 113.94983 179.06406 113.00706 179.56682 C 112.06428 180.06963 112.4412 182.39507 112.4412 182.39507 L 108.67037 182.52064 C 108.67037 182.52064 105.46469 179.5041 105.40184 178.93843 C 105.33904 178.37277 103.39078 178.68709 102.95082 178.62424 C 102.51086 178.56134 101.37934 176.23575 101.37934 176.23575 L 101.75658 172.96722 L 101.63101 170.64178 L 102.63663 169.88782 L 92.391777 167.49934 C 92.391777 167.49934 86.232205 167.18527 85.980798 167.05957 C 85.729391 166.93387 83.215592 165.04832 83.215592 165.04832 L 79.067008 164.48247 L 77.244381 162.91099 L 76.679041 162.03145 L 73.724699 163.35127 L 70.142489 163.60242 L 65.428564 166.43067 L 60.840214 166.87095 L 58.137537 167.87657 L 48.018774 174.41313 L 43.493469 180.76106 L 45.818909 186.22894 L 47.20177 187.04595 L 48.018774 193.58302 L 56.880766 201.75358 L 60.462976 202.25639 L 62.725887 204.45625 L 67.062573 204.7074 L 68.005151 205.6505 L 71.650924 206.78169 L 73.913318 207.91289 L 74.541703 209.29575 L 77.118807 210.3639 L 79.632865 211.62119 C 79.632865 211.62119 81.266874 212.87816 81.266874 213.44382 C 81.266874 214.00949 80.135677 215.39202 80.135677 215.39202 L 78.629309 217.87146 L 90.309216 221.15343 L 96.90623 222.21021 L 106.55835 222.7802 C 106.55835 222.7802 115.43607 222.74616 121.33885 221.43661 C 127.24162 220.12704 137.24311 217.18595 141.94172 214.7378 C 146.64032 212.28965 154.23245 207.43695 154.23245 207.43695 L 151.66103 202.50754 L 148.76973 204.7074 L 145.75286 206.34141 L 142.92461 207.15893 L 142.67295 205.14768 L 141.60479 203.76482 L 139.46746 203.07339 L 139.15326 201.31329 L 137.01644 198.67366 L 137.01644 197.03965 L 136.13639 196.28518 L 136.19944 194.2114 L 134.0621 192.13711 L 134.81658 189.56001 L 131.61109 186.48061 L 134.18819 186.60618 L 137.01644 189.49748 L 137.70787 191.13149 L 138.77603 192.13711 L 138.52488 195.40564 L 140.09584 198.17085 C 140.09584 198.17085 142.35882 197.79374 142.54737 198.67366 C 142.73592 199.55359 142.79852 203.38759 142.79852 203.38759 L 145.31258 204.33016 L 150.15208 200.74795 L 160.45997 193.70859 L 163.2257 189.18328 L 165.86533 185.60056 L 166.36814 183.14954 L 162.22007 181.26387 L 160.96278 183.0865 L 159.32878 183.71488 L 156.12329 183.21207 L 153.29504 180.32129 L 153.86038 179.31567 L 157.12891 180.06963 L 161.27698 181.07525 L 166.68233 179.31567 L 168.8822 177.93281 L 171.01902 177.17833 L 173.09331 174.85289 L 174.03589 175.98409 L 176.4869 176.04714 L 180.91867 174.1842 L 183.82857 166.21414 L 186.26718 155.64218 L 187.21803 144.8785 L 186.48164 132.59914 L 184.64454 123.45706 L 181.68917 114.485 L 175.72829 102.54878 L 164.46283 88.129504 L 148.92373 75.848083 L 146.32233 74.333447 z M 164.54448 148.14548 C 164.56706 148.14338 164.58958 148.14877 164.61166 148.16202 C 164.8943 148.33161 165.68549 149.80119 165.68549 149.80119 L 165.96816 151.66671 L 164.66799 152.96689 L 163.19831 152.68422 C 163.08525 152.45811 162.91564 150.87503 162.91564 150.87503 L 163.02881 149.34902 L 163.98999 149.17952 C 163.98999 149.17952 164.278 148.17025 164.54448 148.14548 z M 153.70173 151.04504 L 156.30209 151.10137 C 156.30209 151.10137 157.65874 151.04499 158.05444 151.21454 C 158.45014 151.38413 159.41111 152.34494 159.07194 152.57105 C 158.73277 152.79717 156.81096 154.09748 156.41526 154.26707 C 156.01956 154.43665 154.94506 155.6799 154.94506 155.6799 L 155.79307 157.03693 L 157.71544 158.90245 C 157.71544 158.90245 159.41094 158.56328 159.41094 158.90245 C 159.41094 159.24162 157.77177 160.31528 157.77177 160.31528 C 157.77177 160.31528 156.98035 161.50251 157.4891 161.72863 C 157.99786 161.95475 159.35461 163.08514 159.35461 163.08514 L 159.86311 164.61166 C 159.86311 164.61166 160.93735 164.89436 160.82429 165.177 C 160.71123 165.45965 159.46779 167.32519 159.46779 167.32519 C 159.46779 167.32519 159.75008 168.45538 159.41094 168.73802 C 159.07177 169.02067 157.31934 169.58615 156.81058 169.6992 C 156.30182 169.81226 154.09757 168.62537 154.09757 168.62537 L 153.24956 166.36401 L 154.77557 164.72483 L 155.62358 163.31148 L 154.3234 161.05063 L 151.77988 159.58044 L 150.87503 157.1501 L 151.04504 154.77557 L 152.51472 153.53223 L 153.70173 151.04504 z " /><g
       id="g30"><path
         style="opacity:1;fill:#1aaa57;fill-opacity:1;stroke-width:0.264583"
         d="m 98.36134,139.86529 0.478687,-1.1524 0.921917,-0.51414 0.815536,-0.14184 -0.10637,-0.79781 -0.63825,-0.70916 -0.602792,-0.12411 0.212751,-1.87929 c 0,0 0.248208,-2.10977 0.177292,-2.1275 -0.07092,-0.0177 -0.531876,-0.46096 -0.531876,-0.46096 l -0.03546,-2.90758 1.223315,-0.85099 0.95737,-0.78009 -0.78008,-1.13466 -1.11694,-0.24821 0.97511,-0.67371 1.34741,-0.83327 0.0177,-0.95738 -0.70916,-0.10637 -0.85101,0.76235 -0.425496,0.0177 -1.666541,0.81554 -0.514147,0.51415 0.336855,0.9751 c 0,0 -0.638249,0.62052 -0.726895,0.67371 -0.08865,0.0532 -0.496417,0.60279 -0.496417,0.60279 l 0.673709,0.74462 c 0,0 0.230478,0.21275 0.177292,0.31913 -0.05319,0.10637 -0.992833,0.67371 -1.02829,0.78008 -0.03546,0.10638 0.08864,0.65598 0.159562,0.70917 0.07092,0.0532 1.294228,0.19502 1.294228,0.19502 0,0 -0.08865,0.65598 -0.212752,0.78008 -0.124102,0.1241 -0.265935,0.69144 -0.230478,0.851 0.03546,0.15956 0.248208,0.79781 0.248208,0.93965 0,0.14183 -0.4255,0.44322 -0.602792,0.53187 -0.177289,0.0887 -0.620519,0.24821 -0.744622,0.4255 -0.124106,0.17729 -0.195022,0.39004 -0.496417,0.40777 -0.301397,0.0177 -0.709168,-0.0887 -0.957376,0.0177 -0.248206,0.10637 -1.843831,1.08148 -1.843831,1.08148 0,0 0.833271,0.88645 0.904187,0.92191 0.07092,0.0355 1.010563,0.21275 1.010563,0.21275 l 0.549603,0.76235 c 0,0 -0.620522,0.12411 -1.081479,0.19503 -0.460957,0.0709 -1.45379,0.0177 -1.701999,0 -0.248208,-0.0177 -0.797811,-0.15957 -1.010562,0.0886 -0.212749,0.24821 -0.141833,0.78008 -0.106373,0.88646 0.03546,0.10637 0.797811,0.58506 1.01056,0.63825 0.212751,0.0532 1.950206,0.49641 2.092042,0.49641 0.141832,0 1.081476,0.0532 1.365144,0.0887 0.283665,0.0355 1.276498,0.0355 1.276498,0.0355 z"
         id="path3" /><path
         style="opacity:1;fill:#1aaa57;fill-opacity:1;stroke-width:0.264583"
         d="m 88.574847,133.02183 0.815541,-0.24821 1.524707,0.51415 c 0,0 1.170125,-0.15956 1.2765,-0.26594 0.106374,-0.10637 2.109769,-2.10977 2.109769,-2.10977 l 0.496417,-1.31195 -0.86873,-0.74463 -0.549603,-0.92191 -1.382874,0.0709 c 0,0 -1.01056,0.44323 -1.134666,0.44323 -0.124103,0 -0.620519,1.20559 -0.620519,1.20559 l -0.726895,1.25876 -0.904187,0.23048 -1.06375,1.06375 -0.01773,0.65598 z"
         id="path4" /><path
         style="opacity:1;fill:#1aaa57;fill-opacity:1;stroke-width:0.264583"
         d="m 95.159456,109.94073 1.438179,0.0533 1.518076,-0.10653 0.506027,-0.66583 c 0,0 -0.71909,-0.63919 -0.71909,-0.74572 0,-0.10653 0.319595,-1.49144 0.319595,-1.49144 l -1.704506,-1.11859 -1.171851,-1.30501 -0.639191,-0.61256 -1.491443,1.57135 -0.372861,1.25174 c 0,0 0.612558,0.79899 0.772356,0.93216 0.159798,0.13316 0.479393,1.54471 0.479393,1.54471 l 0.292963,0.47939 z"
         id="path5" /><path
         style="opacity:1;fill:#1aaa57;fill-opacity:1;stroke-width:0.264583"
         d="m 143.95098,109.14175 1.03869,-0.93216 0.50602,-0.85225 -0.69245,-1.01205 -2.23717,-0.87889 -0.47939,-0.93215 0.50602,-0.87889 0.13317,-1.8643 0.26633,-0.87889 0.77235,-1.704507 c 0,0 -0.18643,-1.17185 -0.37286,-1.43818 -0.18643,-0.26633 -1.8643,-0.426127 -1.97084,-0.106532 -0.10653,0.319596 -0.15979,1.065318 -0.45275,1.544712 -0.29297,0.47939 -1.33165,3.036147 -1.33165,3.355747 0,0.3196 0.63919,1.46481 0.71909,1.97084 0.0799,0.50602 0.79899,2.53012 0.79899,2.53012 l 1.35827,1.62462 z"
         id="path6" /><path
         style="opacity:1;fill:#1aaa57;fill-opacity:1;stroke-width:0.264583"
         d="m 126.02702,98.515206 c -0.21306,-0.292963 -0.74572,-0.958787 -0.74572,-0.958787 0,0 -1.06532,0.399495 -1.14522,0.532659 -0.0799,0.133165 0.21307,1.091952 0,1.251749 -0.21306,0.159796 -0.29296,0.372859 -0.79898,0.29296 -0.50603,-0.0799 -1.33165,-1.278379 -1.33165,-1.278379 0,0 -0.0799,-1.305015 0.18643,-1.358281 0.26633,-0.05326 0.21306,-0.958784 0.10653,-1.01205 -0.10653,-0.05327 -0.34623,-0.90552 -0.26633,-1.038685 0.0799,-0.133165 1.19848,-1.038683 1.19848,-1.038683 0,0 1.14522,0.05327 1.33165,0.346229 0.18643,0.29296 0.93215,1.384911 0.98542,1.518076 0.0533,0.133165 0.2397,-0.745723 0.2397,-0.745723 l 0.66582,-0.639188 1.25175,0.133164 c 0,0 0.21306,0.825619 0.0799,1.038683 -0.13316,0.213064 -0.39949,0.798989 -0.71908,0.825622 -0.3196,0.02663 -0.85226,-0.239697 -0.85226,0.02663 0,0.266329 0.21307,0.639188 0.34623,0.719087 0.13316,0.0799 0.31959,0.958786 0.31959,0.958786 0,0 -0.39949,0.639191 -0.55929,0.639191 -0.15979,0 -0.29296,-0.213063 -0.29296,-0.213063 z"
         id="path7" /><path
         style="opacity:1;fill:#1aaa57;fill-opacity:1;stroke-width:0.264583"
         d="m 134.36313,93.161987 c -0.34623,0 -1.09195,0.45276 -1.09195,0.45276 0,0 -0.47939,0.772356 -0.3995,0.878887 0.0799,0.10653 0.66583,0.452758 0.87889,0.479391 0.21306,0.02663 0.93215,-0.133165 0.95879,-0.372861 0.0266,-0.239694 0.31959,-0.932151 0.21306,-0.958784 -0.10653,-0.02663 -0.55929,-0.479393 -0.55929,-0.479393 z"
         id="path8" /><path
         style="opacity:1;fill:#1aaa57;fill-opacity:1;stroke-width:0.264583"
         d="m 132.20586,93.960975 -0.71909,-0.532659 0.0533,-0.612558 0.82562,-0.02663 0.47939,0.239697 0.19653,0.985221 z"
         id="path9" /><path
         style="opacity:1;fill:#1aaa57;fill-opacity:1;stroke-width:0.264583"
         d="m 136.54703,92.309732 -0.0266,-1.251747 0.85226,-0.479393 c 0,0 0.79899,0.559292 0.74572,0.692457 -0.0533,0.133165 -0.37286,0.905518 -0.37286,0.905518 z"
         id="path10" /><path
         style="opacity:1;fill:#1aaa57;fill-opacity:1;stroke-width:0.264583"
         d="m 143.09873,88.394692 1.62461,-0.506026 c 0,0 0.90552,-0.825619 0.66582,-0.958784 -0.2397,-0.133164 -0.82562,-0.798988 -1.01205,-0.798988 -0.18643,0 -1.17185,0.532659 -1.43818,0.532659 -0.26633,0 -0.63919,-0.26633 -0.63919,-0.372862 0,-0.106532 -0.77235,-1.251749 -0.95879,-1.198483 -0.18642,0.05327 -1.17184,1.012053 -1.17184,1.012053 0,0 -0.2397,-0.106532 0.13316,0.399494 0.37286,0.506026 1.46481,1.491443 1.46481,1.491443 z"
         id="path11" /><path
         style="opacity:1;fill:#1aaa57;fill-opacity:1;stroke-width:0.264583"
         d="m 75.248076,98.187779 0.876676,-3.068368 c 0,0 1.315013,-1.680297 1.60724,-1.972522 0.292224,-0.292227 1.534184,-2.118635 1.972522,-2.337805 0.438338,-0.219168 4.894778,-2.556973 4.894778,-2.556973 0,0 2.337803,-0.584451 2.922254,-0.657508 0.584452,-0.07306 1.680297,-0.365281 1.680297,-0.365281 l 0.292227,-1.753354 c 0,0 1.607241,-0.584452 1.680295,0.21917 0.07306,0.803619 0.292227,1.095846 0.292227,1.095846 l 1.607241,-1.972524 c 0,0 0.292224,-0.803619 0.657508,-0.803619 0.365281,0 3.287535,-0.949733 3.287535,-0.949733 l 2.556976,-2.630029 0.14611,-2.776144 c 0,0 2.483918,-0.292224 2.849198,-0.21917 0.36528,0.07306 2.33781,0.146114 2.8492,0.657508 0.5114,0.511395 1.09585,1.095846 1.89947,1.388073 0.80362,0.292224 2.55697,0.146111 2.99531,0.365281 0.43834,0.219168 1.46113,0.803619 1.89947,1.315014 0.43833,0.511394 3.36059,2.118635 3.5067,2.483919 0.14611,0.365281 1.82641,2.703086 1.60724,3.068367 -0.21917,0.365281 -1.24196,1.168903 -1.46113,1.680298 -0.21917,0.511394 0.43834,2.264746 -0.6575,2.556973 -1.09585,0.292224 -1.89947,0.365281 -2.48392,0.438337 -0.58445,0.07306 -2.19169,1.753354 -2.19169,1.753354 0,0 -0.58445,1.461127 -0.94973,1.826409 -0.36529,0.365283 -1.6803,1.82641 -1.6803,1.82641 0,0 -0.5114,0 -1.6803,0 -1.1689,0 -2.63003,-0.365281 -3.28754,0.365281 -0.6575,0.730565 -0.73056,0.803622 -0.73056,1.168903 0,0.365281 0.14611,0.803619 -1.38807,1.168903 -1.534185,0.365281 -1.680299,0.438338 -3.141426,0.292224 -1.461127,-0.146113 -4.0181,-1.095846 -4.0181,-1.095846 0,0 -1.753354,-1.534184 -2.118635,-1.461127 -0.365284,0.07306 -2.703087,1.315016 -2.703087,1.315016 l -0.876675,-1.315016 -0.584452,-1.168903 c 0,0 -2.483919,0.146114 -2.8492,0.292227 -0.365281,0.146111 -2.191692,0.803619 -2.191692,0.803619 0,0 -1.38807,0.365282 -2.118635,0.292227 -0.730562,-0.07306 -0.803619,0.219168 -1.753351,0.657506 -0.949735,0.43834 -2.995314,1.095846 -2.995314,1.095846 z"
         id="path12" /><path
         style="opacity:1;fill:#1aaa57;fill-opacity:1;stroke-width:0.264583"
         d="m 43.951776,93.338202 2.06262,1.743141 1.865447,0.395703 c 0,0 0.847932,-0.960991 0.50876,-1.187106 -0.339172,-0.226113 -1.469747,-1.187104 -1.526276,-1.413217 -0.05653,-0.226115 0.282644,-1.300162 0.282644,-1.300162 0,0 1.356688,0.395703 1.582804,-0.169585 0.226115,-0.565287 -1.000641,-2.321385 -1.000641,-2.321385 l 0.0222,-0.02328 z"
         id="path13" /><path
         style="opacity:1;fill:#1aaa57;fill-opacity:1;stroke-width:0.264583"
         d="m 49.171134,87.609941 c 0,0 0.856803,1.309769 1.195975,1.422826 0.339172,0.113059 0.791403,-0.3957 0.791403,-0.3957 l 0.169585,-1.356691 c 0,0 0.791403,-0.847929 1.130575,-0.452229 0.339172,0.395701 1.978507,1.413219 1.639335,1.80892 -0.339175,0.3957 -0.847932,1.752391 -0.565288,1.978506 0.282644,0.226116 1.69586,0.90446 2.035035,1.187103 0.339172,0.282644 1.187103,1.695863 1.187103,1.695863 l 1.017516,0.452229 c 0,0 0.90446,-0.960988 1.187104,-1.243632 0.282644,-0.282644 1.582806,-1.243632 1.582806,-1.243632 l 1.808919,-2.035034 1.639335,-1.639335 1.639332,-1.639332 c 0,0 1.86545,-0.508759 2.091563,-0.565287 0.226115,-0.05653 2.543794,-1.752391 2.543794,-1.752391 0,0 0.678344,-1.413219 -0.339172,-1.413219 -1.017519,0 -3.052554,0.226115 -3.052554,0.226115 l -0.678344,-1.017518 0.508759,-1.413219 3.222139,-1.187104 2.148091,-1.130575 c 0,0 1.413219,-0.565287 1.695863,-0.7914 0.282643,-0.226116 1.921978,-1.695863 1.921978,-1.695863 l 0.7914,-2.204622 c 0,0 -0.7914,-0.508759 -1.074044,-0.452229 -0.282644,0.05653 -1.243634,0.678345 -1.469747,0.847932 -0.226116,0.169585 -1.808922,0.282641 -2.035035,0.226113 -0.226115,-0.05653 -2.282235,-0.99659 -2.282235,-0.99659 l -0.695891,0.356854 -5.584497,3.185059 -5.193456,3.529592 -6.10726,4.988047 z"
         id="path14" /><path
         style="opacity:1;fill:#1aaa57;fill-opacity:1;stroke-width:0.264583"
         d="m 49.914878,102.03438 -0.05653,-2.487265 1.243632,-0.508759 -1.187104,-1.243632 c 0,0 0.282644,-0.847931 0.621816,-0.847931 0.339175,0 0.791403,-1.582806 0.791403,-1.582806 l -0.904459,-1.130576 2.091562,-0.282643 0.791404,0.847931 1.35669,-0.90446 c 0,0 1.69586,1.130576 1.187104,1.469748 -0.50876,0.339172 -1.752391,0.960987 -1.752391,0.960987 v 1.808922 c 0,0 -0.847932,1.921974 -1.130575,2.148094 -0.282644,0.22611 -3.052554,1.75239 -3.052554,1.75239 z"
         id="path15" /><path
         style="opacity:1;fill:#1aaa57;fill-opacity:1;stroke-width:0.264583"
         d="m 119.92796,174.19093 c 0,0 0.97839,-0.15052 1.16654,-0.0753 0.18815,0.0753 1.05365,0.71498 1.05365,0.71498 0,0 -0.37631,0.79024 -0.63972,0.8655 -0.26341,0.0753 -1.80626,0.26341 -1.80626,0.26341 l -0.22578,-1.12891 z"
         id="path16" /><path
         style="opacity:1;fill:#1aaa57;fill-opacity:1;stroke-width:0.264583"
         d="m 123.23943,176.56165 0.26341,-1.01602 0.41393,-0.56446 0.79024,0.56446 c 0,0 -0.67735,0.82786 -0.90313,0.94076 -0.22578,0.11289 -0.56445,0.0753 -0.56445,0.0753 z"
         id="path17" /><path
         style="opacity:1;fill:#1aaa57;fill-opacity:1;stroke-width:0.264583"
         d="m 124.70701,175.54563 2.14493,-0.90313 0.3763,-0.8655 c 0,0 -0.48919,-0.4892 -1.09128,-0.15052 -0.60208,0.33867 -1.82507,1.63692 -1.82507,1.63692 z"
         id="path18" /><path
         style="opacity:1;fill:#1aaa57;fill-opacity:1;stroke-width:0.264583"
         d="m 122.67497,174.00278 -0.56445,-0.45156 c 0,0 -0.45157,-0.79024 -0.26342,-0.79024 0.18816,0 0.75261,-0.18815 0.8655,0.0753 0.11289,0.26341 -0.0376,1.16654 -0.0376,1.16654 z"
         id="path19" /><path
         style="opacity:1;fill:#1aaa57;fill-opacity:1;stroke-width:0.264583"
         d="m 123.72862,173.777 0.67735,-0.3763 0.11289,-0.4892 c 0,0 -0.79024,-0.3763 -0.8655,-0.22578 -0.0753,0.15052 0.0753,1.09128 0.0753,1.09128 z"
         id="path20" /><path
         style="opacity:1;fill:#1aaa57;fill-opacity:1;stroke-width:0.264583"
         d="m 123.65336,172.68572 1.31706,-1.16654 c 0,0 -0.3763,-0.8655 -0.56445,-0.8655 -0.18815,0 -0.79024,0.22578 -0.8655,0.3763 -0.0753,0.15052 0.11289,1.65574 0.11289,1.65574 z"
         id="path21" /><path
         style="opacity:1;fill:#1aaa57;fill-opacity:1;stroke-width:0.264583"
         d="m 122.33812,172.69778 c 0,0 -1.01784,-1.06571 -0.86732,-1.29149 0.15052,-0.22579 0.75261,-1.01602 0.75261,-1.01602 0,0 1.31706,0.63971 1.31706,0.63971 l -0.82787,1.8063 z"
         id="path22" /><path
         style="opacity:1;fill:#1aaa57;fill-opacity:1;stroke-width:0.264583"
         d="m 108.37544,171.82022 c 0,0 0.79023,-0.48919 0.86549,-0.67735 0.0753,-0.18815 0.67735,-1.31706 0.67735,-1.31706 l -0.30104,-0.8655 -1.91915,-0.26341 -1.88152,-0.3763 -0.94076,0.71497 c 0,0 0.52683,1.20418 0.63972,1.39233 0.11289,0.18815 1.42995,0.22578 1.42995,0.22578 z"
         id="path23" /><path
         style="opacity:1;fill:#1aaa57;fill-opacity:1;stroke-width:0.264583"
         d="m 99.795712,164.67045 c 0,-0.15052 0.225778,-2.59649 0.225778,-2.59649 l 0.75261,-1.09128 1.05365,0.26341 c 0,0 0.45157,1.01602 0.45157,1.27943 0,0.26341 -0.41394,1.88152 -0.41394,1.88152 0,0 -0.82786,1.01602 -1.01602,0.97839 -0.18815,-0.0376 -1.053648,-0.71498 -1.053648,-0.71498 z"
         id="path24" /><path
         style="opacity:1;fill:#1aaa57;fill-opacity:1;stroke-width:0.264583"
         d="m 100.88699,159.47746 0.75261,-1.46758 0.82787,-1.12891 0.90313,-0.11289 0.22578,1.35469 -0.82787,1.50521 -0.8655,0.75261 z"
         id="path25" /><path
         style="opacity:1;fill:#1aaa57;fill-opacity:1;stroke-width:0.264583"
         d="m 93.702475,160.74305 c 0,0 0.372522,-0.9047 0.399129,-0.95791 0.02661,-0.0532 0.532175,-0.70513 0.532175,-0.70513 l 0.558781,0.13304 c 0,0 0.651913,0.63861 0.651913,0.70513 0,0.0665 -0.106434,1.03774 -0.159653,1.11757 -0.05322,0.0798 -0.385823,0.74504 -0.478954,0.78495 -0.09313,0.0399 -0.532175,0.0931 -0.665218,0.0532 -0.133043,-0.0399 -0.851477,-0.98452 -0.851477,-0.98452 z"
         id="path26" /><path
         style="opacity:1;fill:#1aaa57;fill-opacity:1;stroke-width:0.264583"
         d="m 89.405173,161.66105 c 0.06652,-0.11974 0.532172,-0.87809 0.598694,-0.918 0.06652,-0.0399 0.532175,-0.65191 0.385826,-0.71844 -0.146346,-0.0665 -0.731737,-0.14634 -0.731737,-0.14634 l -0.931304,0.71843 -0.172958,0.71844 0.718436,0.35921 z"
         id="path27" /><path
         style="opacity:1;fill:#1aaa57;fill-opacity:1;stroke-width:0.264583"
         d="m 90.788825,162.31296 c 0,0 -0.279392,-0.63861 -0.279392,-0.71843 0,-0.0798 0.332608,-0.85148 0.332608,-0.85148 0,0 0.651914,-0.58539 0.718436,-0.65191 0.06652,-0.0665 0.944607,0.29269 1.064347,0.34591 0.119737,0.0532 0.452348,0.55878 0.452348,0.66522 0,0.10643 -0.159653,0.97121 -0.23948,1.02443 -0.07982,0.0532 -1.117563,0.53218 -1.117563,0.53218 z"
         id="path28" /></g></g></svg>
